<svg id="Composant_18_1" class="fill-current" data-name="Composant 18 – 1" xmlns="http://www.w3.org/2000/svg" width="612.251" height="97.79" viewBox="0 0 612.251 97.79">
    <path id="Tracé_142" data-name="Tracé 142" d="M8.294-5.336a13.274,13.274,0,0,1-.174,3.6A2.64,2.64,0,0,1,7.366-.29a1.053,1.053,0,0,1-1.16.116,7.909,7.909,0,0,0-.87-.377,3.331,3.331,0,0,1-.812-.435Q3.654-1.508,2.813-2A4.161,4.161,0,0,1,1.392-3.422,32.45,32.45,0,0,1-.841-7.627a40.8,40.8,0,0,1-1.653-4.437q-1.16-3.828-2.175-7.656t-2-7.656a54.909,54.909,0,0,1-1.276-6.96q-.406-3.48-.464-7.018-.058-1.508-.2-3.016t-.145-3.016q-.116-3.6,0-7.25v-1.45l-.261-.087a.643.643,0,0,0-.2-.029q-3.48-.116-6.931-.145t-6.931-.145a11.688,11.688,0,0,1-1.45-.087q-.7-.087-1.45-.145a.7.7,0,0,1-.638-.638,1.838,1.838,0,0,1,.377-1.392A1.642,1.642,0,0,1-25-59.508q3.77-.348,7.482-.783a50.778,50.778,0,0,1,7.482-.319q.406,0,.754-.029t.754-.029q.174-1.334.348-2.523t.29-2.407a63.688,63.688,0,0,1,1.16-6.786,39.685,39.685,0,0,1,2.088-6.5A14.639,14.639,0,0,1-.406-84.564a10.41,10.41,0,0,1,4-1.914,27.879,27.879,0,0,1,4.7-.812,8.632,8.632,0,0,1,3.654.551,18.373,18.373,0,0,1,3.364,1.711,2.76,2.76,0,0,1,1.247,1.595q.261.957.551,1.943a1.8,1.8,0,0,1,.058.435,1.8,1.8,0,0,0,.058.435,7.087,7.087,0,0,1,.319,2.233,16.112,16.112,0,0,1-.2,2.146q-.174,1.073-.377,2.146A16.294,16.294,0,0,0,16.7-71.92a1.942,1.942,0,0,1-2.552-1.508,10.618,10.618,0,0,1-.377-1.276,9.725,9.725,0,0,1-.2-1.276,2.876,2.876,0,0,0-.58-1.566,4.675,4.675,0,0,0-1.334-1.189,4.76,4.76,0,0,0-1.8-.638,4.259,4.259,0,0,0-1.914.145,3.334,3.334,0,0,0-1.479.986,4.663,4.663,0,0,0-.9,1.508q-.406,1.16-.7,2.291a22.886,22.886,0,0,0-.464,2.291,53.527,53.527,0,0,0-.87,6.438Q3.422-64.5,3.393-63.22t-.087,2.61q1.276.116,2.465.174t2.349.174q2.726.232,5.394.435t5.336.493a3.109,3.109,0,0,1,1.827.58,4.712,4.712,0,0,1,.957,1.856q-.464.348-.9.725t-.9.725a1.128,1.128,0,0,1-.58.232H15.718q-1.74,0-3.538-.058-1.914-.058-3.828-.145t-3.828-.145a2.813,2.813,0,0,0-.551-.058H3.422q0,1.044-.029,1.972t.029,1.8q.232,3.944.464,7.83t.522,7.772a48.611,48.611,0,0,0,.667,5.6q.493,2.755.9,5.539.464,3.016.9,6.032t.725,6.09q.174,1.914.377,3.741T8.294-5.336Z" transform="translate(467.665 92.74)"/>
    <path id="Tracé_143" data-name="Tracé 143" d="M1.8-3.422A6.793,6.793,0,0,1-.783-.986a7.735,7.735,0,0,1-2.639.812A7.048,7.048,0,0,1-6.264-.406,10.806,10.806,0,0,1-7.6-2.61,12.562,12.562,0,0,1-8.41-5.1a51.789,51.789,0,0,1-.957-6.67q-.261-3.364-.377-6.728Q-9.86-21.634-10-24.679t-.145-6.177q0-4.292.058-8.555t.116-8.613q.058-4,.029-7.975t.087-7.975q.058-3.422.2-6.786T-9.4-77.6q.058-1.682.232-3.306a11.734,11.734,0,0,1,.812-3.19,9.793,9.793,0,0,1,1.1-2.2,1.524,1.524,0,0,1,.725-.638,2.554,2.554,0,0,1,.957-.174,3.4,3.4,0,0,1,2.262.638A5.719,5.719,0,0,1-1.74-84.622,17.855,17.855,0,0,1,.029-79.257,48.72,48.72,0,0,1,.58-73.6Q.7-70.876.754-68.208t.058,5.394q.058,4,.058,7.975T.754-46.864q0,2.668-.116,5.307T.406-36.25Q.348-33.7.319-31.233T.29-26.274q0,1.8.058,3.538T.464-19.2q0,1.334.058,2.726T.58-13.688q.058,1.334.029,2.639T.58-8.352q.232-.29.406-.551t.406-.551q.522-.522,1.015-1.044a10.465,10.465,0,0,1,1.073-.986,1.162,1.162,0,0,1,1.566.058.654.654,0,0,1,.348.638,6.879,6.879,0,0,1-.174.754A21.615,21.615,0,0,1,3.683-6.641Q2.784-5.046,1.8-3.422Z" transform="translate(503.665 92.74)"/>
    <path id="Tracé_144" data-name="Tracé 144" d="M17.429-23.548q-1.1,2.436-2.233,4.814t-2.407,4.756A33.952,33.952,0,0,1,10.15-9.657Q8.671-7.6,6.989-5.684A17.347,17.347,0,0,1,1.218-1.131a13.424,13.424,0,0,1-7.4,1.073A14.946,14.946,0,0,1-13.6-2.784a17.687,17.687,0,0,1-5.1-6.09,30.681,30.681,0,0,1-2.175-5.655,35.071,35.071,0,0,1-1.073-5.945,35.146,35.146,0,0,1-.261-4.7q.029-2.32.145-4.7a39.836,39.836,0,0,1,.522-4.814,42.215,42.215,0,0,1,1.1-4.756,52.4,52.4,0,0,1,2.407-6.728,26.223,26.223,0,0,1,3.741-6.09,20.3,20.3,0,0,1,3.074-3.1,22.527,22.527,0,0,1,3.654-2.407,21.266,21.266,0,0,1,3.451-1.421,15.369,15.369,0,0,1,3.625-.667,18.29,18.29,0,0,1,4.118.232,9.32,9.32,0,0,1,3.886,1.682q.464.348.957.667t1.015.609a12.965,12.965,0,0,1,3.1,2.784,29.981,29.981,0,0,1,2.407,3.48,10.481,10.481,0,0,1,1.392,3.944,13.391,13.391,0,0,1-.116,4.292A22.708,22.708,0,0,1,9.483-29.812Q7.917-28.3,6.293-26.883a35,35,0,0,1-3.422,2.639,27.036,27.036,0,0,1-5.307,2.726,18.424,18.424,0,0,1-5.887,1.16,4.8,4.8,0,0,0-.522.116,25.335,25.335,0,0,0,1.218,4.7,13.5,13.5,0,0,0,2.378,4.06A8.937,8.937,0,0,0-2.262-9.222a10.083,10.083,0,0,0,3.625.87,2.318,2.318,0,0,0,1.421-.319q.609-.377,1.247-.841a20.012,20.012,0,0,0,2.436-2.523A27.407,27.407,0,0,0,8.5-14.906q1.334-2.03,2.436-4.118a43.062,43.062,0,0,0,1.972-4.292,7.415,7.415,0,0,1,1.073-1.769,2.741,2.741,0,0,1,1.769-.9,2.991,2.991,0,0,1,1.218.348,1.97,1.97,0,0,1,.638.783A1.511,1.511,0,0,1,17.429-23.548Zm-26.8-.058q.754-.116,1.363-.174a6.16,6.16,0,0,0,1.189-.232,17.571,17.571,0,0,0,3.857-1.363A21.725,21.725,0,0,0,.493-27.492q1.334-.986,2.552-2T5.423-31.61A16.877,16.877,0,0,0,9.251-36.6a20.777,20.777,0,0,0,1.914-5.974,6.611,6.611,0,0,0,0-2.755,5.7,5.7,0,0,0-1.276-2.465A8.5,8.5,0,0,0,5.51-50.663a7.2,7.2,0,0,0-5.133.609,13.234,13.234,0,0,0-3.915,2.871A16.768,16.768,0,0,0-6.293-43.21a30.534,30.534,0,0,0-2.668,7.946,40.525,40.525,0,0,0-.667,4.524,32.851,32.851,0,0,0-.087,4.582q.058.638.145,1.247T-9.367-23.606Z" transform="translate(555.665 88.74)"/>
    <path id="Tracé_145" data-name="Tracé 145" d="M2.407-8.584q.174,1.508.29,2.842.116,1.16.174,2.2a5.06,5.06,0,0,1-.058,1.45A3.365,3.365,0,0,1,1.885-.406,2.136,2.136,0,0,1,.145.058,4.3,4.3,0,0,1-2.494-1.189,9.15,9.15,0,0,1-4.089-3.538,6.477,6.477,0,0,1-4.727-5.22q-.174-.754-.348-1.45t-.29-1.45q-.29-3.074-.609-6.09t-.551-6.09q-.232-2.726-.435-5.394t-.145-5.452q.058-1.566.029-3.132t-.029-3.132q.058-.986.087-1.943t.087-1.943q0-.986-.029-1.914t.029-1.914a12.022,12.022,0,0,1,.348-2.32A3.055,3.055,0,0,1-4.93-49.5a2.716,2.716,0,0,1,2.581-.029,2.443,2.443,0,0,1,.783.609q.319.377.609.783a6.623,6.623,0,0,1,.783,1.682q.261.87.493,1.8a31.814,31.814,0,0,1,.725,4.379A36.693,36.693,0,0,1,1.189-35.9q-.058,1.508-.029,2.929t.029,2.929h.058q.116,1.74.116,3.451t.116,3.451l.87,12.18q.058.638.058,1.189ZM-2.059-53.94a2.5,2.5,0,0,1-.812.232,2.017,2.017,0,0,1-.9-.087,1.75,1.75,0,0,1-.812-.638,3.431,3.431,0,0,1-.551-1.479,3.07,3.07,0,0,1,.087-1.653A3.8,3.8,0,0,1-4.379-58.7a3.808,3.808,0,0,1,1.16-.87q.174-.116.783.116t1.247.522A2.724,2.724,0,0,1,.058-57.594a4.823,4.823,0,0,1,.609,1.856.9.9,0,0,1-.261.667,2.928,2.928,0,0,1-.7.493,5.207,5.207,0,0,1-.9.377Q-1.653-54.056-2.059-53.94Z" transform="translate(522.665 70.74)"/>
    <path id="Tracé_152" data-name="Tracé 152" d="M-15.312-25a28.92,28.92,0,0,1,2.523,2.61A6.8,6.8,0,0,1-11.31-19.14a29.923,29.923,0,0,0,.754,3.277,10.722,10.722,0,0,0,1.45,3.045,11.722,11.722,0,0,0,1.334,1.537q.7.667,1.508,1.3a3.519,3.519,0,0,0,1.508.667,6.549,6.549,0,0,0,1.624.087,2.619,2.619,0,0,0,1.16-.464A10.9,10.9,0,0,0-.7-11.078a5.254,5.254,0,0,0,.87-1.74A22.372,22.372,0,0,0,1.1-18.27a16.994,16.994,0,0,0-.7-5.51A15.587,15.587,0,0,0-.87-27.057a31.361,31.361,0,0,0-1.8-2.987q-1.16-1.624-2.291-3.19t-2.117-3.248q-1.218-2.03-2.233-4.118A22.575,22.575,0,0,1-10.9-45.008a12.067,12.067,0,0,1-.29-3.538,12.891,12.891,0,0,1,.725-3.509,12.111,12.111,0,0,1,1.682-3.161A10.913,10.913,0,0,1-6.206-57.71l.928-.58.928-.58a7.3,7.3,0,0,1,2.871-1.015,8.76,8.76,0,0,1,3.016.116A11.124,11.124,0,0,1,4.35-58.754,10.333,10.333,0,0,1,6.67-57.13a32.286,32.286,0,0,1,3.77,4.408A10.271,10.271,0,0,1,11.513-50.9q.435.957.9,1.943.29.638.522,1.218t.522,1.218a1.468,1.468,0,0,1-.232,1.566,1.6,1.6,0,0,1-.406.464.7.7,0,0,1-.638.058.843.843,0,0,1-.87-.87q-.116-.522-.2-1.044a5.268,5.268,0,0,0-.261-.986A15.562,15.562,0,0,0,8.932-50.75,11.009,11.009,0,0,0,6.09-53.418a5.816,5.816,0,0,0-1.566-.725q-.87-.261-1.682-.493a2.123,2.123,0,0,0-1.044.029A1.9,1.9,0,0,0,.87-54a12.609,12.609,0,0,0-1.8,2.7,8.278,8.278,0,0,0-.812,3.1,4.25,4.25,0,0,0,.174,1.566,7.512,7.512,0,0,0,.58,1.392A47.091,47.091,0,0,0,1.537-40.8Q2.9-38.686,4.35-36.6q1.16,1.566,2.2,3.19t1.972,3.364a23.412,23.412,0,0,1,2.784,9.918,38.69,38.69,0,0,1-.145,5.423,26.369,26.369,0,0,1-1.073,5.249A14.317,14.317,0,0,1,7.511-4.147,11.838,11.838,0,0,1,2.726-.638a7.622,7.622,0,0,1-2.552.58,19.755,19.755,0,0,1-2.61-.058A15.181,15.181,0,0,1-9.86-2.726a18.261,18.261,0,0,1-2.349-2.03q-1.073-1.1-2.059-2.262a18.16,18.16,0,0,1-3.306-6.844,8.937,8.937,0,0,1-.261-3.1,15.178,15.178,0,0,1,.609-3.045,24.932,24.932,0,0,1,.928-2.465Q-15.776-23.664-15.312-25Z" transform="translate(598.665 80.74)"/>
    <path id="Tracé_146" data-name="Tracé 146" d="M15.6-46.574a6,6,0,0,1-1.015.116,1.367,1.367,0,0,1-.609-.116,1.02,1.02,0,0,1-.406-.406q-.174-.29-.464-.87a3.793,3.793,0,0,0-.232-.406q-1.392-1.276-2.871-2.436A8.8,8.8,0,0,0,6.67-52.316a4.728,4.728,0,0,0-1.247-.174q-.609,0-1.247-.058a7.193,7.193,0,0,0-.957.087,10.251,10.251,0,0,0-1.247.261,11.714,11.714,0,0,0-1.16.377,1.592,1.592,0,0,0-.7.435,71.305,71.305,0,0,0-4.5,7.25,26.349,26.349,0,0,0-2.755,8.062,73.709,73.709,0,0,0-1.073,7.859A40.223,40.223,0,0,0-8.062-20.3q.232,2.088.493,4.06a6.632,6.632,0,0,0,1.711,3.6q.638.754,1.16,1.334a13.128,13.128,0,0,0,1.276,1.218,2.136,2.136,0,0,0,1.044.319,14.2,14.2,0,0,0,1.624.087A11.28,11.28,0,0,0,.9-9.8a3.227,3.227,0,0,0,1.073-.29A8.313,8.313,0,0,0,4.089-11.8a18.39,18.39,0,0,0,1.653-2.175,12.407,12.407,0,0,0,.928-1.74q.406-.928.87-1.856.464-.986.928-1.943A5.342,5.342,0,0,1,9.8-21.228a1.541,1.541,0,0,1,1.334-.377,1.211,1.211,0,0,1,.928.957,5.988,5.988,0,0,1,.29,1.421,3.343,3.343,0,0,1-.232,1.479q-.638,2.03-1.334,4A28.041,28.041,0,0,1,9.106-9.918,25.356,25.356,0,0,1,6.554-6.09,16.909,16.909,0,0,1,3.248-2.958,13.826,13.826,0,0,1-5.771.116,13.5,13.5,0,0,1-14.442-4.06a18.152,18.152,0,0,1-4.408-6.264,27.623,27.623,0,0,1-1.914-7.482,38.536,38.536,0,0,1-.058-8.7,73.684,73.684,0,0,1,1.45-8.584q.754-3.132,1.711-6.148A38.474,38.474,0,0,1-15.254-47.1a26.722,26.722,0,0,1,6.235-8.12A18.86,18.86,0,0,1,.232-59.45,9.189,9.189,0,0,1,2.668-59.6q1.276.087,2.494.261a20.74,20.74,0,0,1,4.06.986,11.929,11.929,0,0,1,3.654,2.088l1.769,1.653a6.635,6.635,0,0,1,1.421,1.885,7.329,7.329,0,0,1,.7,3.1A4.809,4.809,0,0,1,15.6-46.574Z" transform="translate(274.665 86.74)"/>
    <path id="Tracé_139" data-name="Tracé 139" d="M13.6-51.272q.348,2.378.551,4.7a42.839,42.839,0,0,1,.145,4.756,9.447,9.447,0,0,1-.058,1.044,7.464,7.464,0,0,1-.174.986l-.348,3.306a1.681,1.681,0,0,1-1.015.2,1.49,1.49,0,0,1-.783-.667,8.239,8.239,0,0,1-1.856-4.408q-.232-1.682-.319-3.422T9.425-48.2a23.162,23.162,0,0,0-.493-2.465q-.319-1.247-.609-2.465A3.917,3.917,0,0,0,8-53.911q-.2-.377-.435-.841-.58.464-1.131.841a7.107,7.107,0,0,0-1.015.841,51.717,51.717,0,0,0-3.828,4.147,41.556,41.556,0,0,0-3.306,4.611,33.634,33.634,0,0,0-2.407,4.7,34.232,34.232,0,0,0-1.653,5.046,1.786,1.786,0,0,0-.116.667v.725q.174,1.508.377,2.987t.493,2.987a34.807,34.807,0,0,1,.609,3.77q.2,1.914.493,3.828.116.58.2,1.1t.2,1.044q.116,1.218.261,2.436t.261,2.378q.174,1.16.348,2.378t.348,2.378l.232,1.044L-1.827-5.8a1.931,1.931,0,0,1,.058.812l-.116.812a12.373,12.373,0,0,1-.2,1.479A3,3,0,0,1-2.7-1.392l-.348.348a1.783,1.783,0,0,1-1.218.406,7.36,7.36,0,0,1-1.566.522,8.707,8.707,0,0,1-2,.232A5.2,5.2,0,0,1-9.686-.2a1.825,1.825,0,0,1-1.131-1.131A57.556,57.556,0,0,1-12.3-7.366q-.725-3.654-1.421-8.033t-1.334-9.164q-.638-4.785-1.189-9.454t-.986-8.9q-.435-4.234-.754-7.482t-.464-5.22q-.145-1.972-.145-2.088.058-.174.522-.406a6.231,6.231,0,0,1,1.073-.406q.609-.174,1.247-.319t.986-.261a.336.336,0,0,1,.232-.058.051.051,0,0,0,.058-.058v.058a2.107,2.107,0,0,1,.667-.116h.609a.914.914,0,0,1,.87.406q.232.406.58.928a20.358,20.358,0,0,1,1.914,3.973q.754,2.117,1.334,4.321.406,1.508.667,3.016t.551,3.016a.643.643,0,0,0,.029.2q.029.087.087.377l.406-.812q.174-.348.29-.638a23.977,23.977,0,0,1,2.958-5.162Q-2-51.62-.435-53.534A23.178,23.178,0,0,1,3.1-57.014q.406-.348.841-.667t.9-.725a4.97,4.97,0,0,1,2.233-1.015,9.489,9.489,0,0,1,2.465-.087,1.412,1.412,0,0,1,.87.406,5.978,5.978,0,0,1,.638.754,9.114,9.114,0,0,1,1.769,3.364A32.355,32.355,0,0,1,13.6-51.272Z" transform="translate(315.665 76.74)"/>
    <path id="Tracé_147" data-name="Tracé 147" d="M18.937-29.7q-.058,2.784-.174,4.959a21.425,21.425,0,0,1-.638,4.2q-.464,1.74-.986,3.451a23.725,23.725,0,0,1-1.334,3.393q-.812,1.566-1.682,3.074L12.383-7.6a12.283,12.283,0,0,1-2.2,2.668A28.168,28.168,0,0,1,7.511-2.784a.571.571,0,0,1-.2.145.571.571,0,0,0-.2.145A8.655,8.655,0,0,1,3.045-.435,23.309,23.309,0,0,1-1.479,0,9.756,9.756,0,0,1-3.451-.2q-.986-.2-1.972-.377a16.552,16.552,0,0,1-8.149-3.944A21.44,21.44,0,0,1-18.7-11.89a28.144,28.144,0,0,1-2.262-7.946,36.609,36.609,0,0,1-.116-8.236,53.527,53.527,0,0,1,.928-6.148,47.424,47.424,0,0,1,1.682-5.974A39.507,39.507,0,0,1-14.587-48.4a29.894,29.894,0,0,1,5.974-6.873,17.862,17.862,0,0,1,11.078-4.35,10.217,10.217,0,0,1,5.307,1.015,13.087,13.087,0,0,1,4.2,3.451,20.609,20.609,0,0,1,3.219,5.6,50.916,50.916,0,0,1,1.885,6.119,38.075,38.075,0,0,1,.725,3.828q.261,1.914.551,3.886.29,1.682.493,3.306A12.23,12.23,0,0,1,18.937-29.7Zm-27.55,5.742a22.689,22.689,0,0,0,.754,4.843,18,18,0,0,0,2.436,5.423A11.815,11.815,0,0,0-.928-9.57,11.111,11.111,0,0,0,5.133-8.526,7.174,7.174,0,0,0,6.7-8.932q.754-.29,1.508-.638a5.742,5.742,0,0,0,2.349-2.088q.841-1.334,1.595-2.784a19.005,19.005,0,0,0,1.624-4.872q.464-2.494.7-5.046a41.535,41.535,0,0,0,.232-4.35A20.256,20.256,0,0,0,14.239-33q-.29-1.508-.522-3.016t-.58-3.016q-.464-2.146-1.131-4.234a17.406,17.406,0,0,0-1.827-3.944A17.569,17.569,0,0,0,7.8-50.344a9.535,9.535,0,0,0-3.306-2.2,4.485,4.485,0,0,0-2.784-.319A4.57,4.57,0,0,0-.493-51.1a34.829,34.829,0,0,0-4.93,8.874,50.52,50.52,0,0,0-2.291,8.5A63.551,63.551,0,0,0-8.613-23.954Z" transform="translate(347.665 95.74)"/>
    <path id="Tracé_140" data-name="Tracé 140" d="M26.013-59.682a7.614,7.614,0,0,1,.058,1.624,11.732,11.732,0,0,1-.232,1.624q-.348,1.508-.58,3.1t-.58,3.161q-.464,2.146-.957,4.263t-.957,4.321q-.812,3.538-1.711,7.018a65.579,65.579,0,0,0-1.421,7.134q-.29,2.378-.667,4.7t-.783,4.7a29.037,29.037,0,0,1-1.334,4.9,36.343,36.343,0,0,1-2.088,4.611l-.522,1.044a9.732,9.732,0,0,1-4,4.524,2.675,2.675,0,0,1-.986.377q-.522.087-1.044.2a1.135,1.135,0,0,1-.841-.087,7.355,7.355,0,0,1-.783-.493A8.087,8.087,0,0,1,4.437-5.1Q3.625-6.322,2.871-7.656a90.083,90.083,0,0,1-4.147-8.468A80.928,80.928,0,0,1-4.437-24.94q-.174-.638-.348-1.189t-.348-1.131h-.232q-.29,1.218-.638,2.436t-.58,2.436q-.522,2.9-.986,5.713T-8.5-10.962q-.29,1.276-.551,2.523T-9.6-5.916q-.116.406-.2.783t-.145.783a8.527,8.527,0,0,1-1.1,3.016,2.663,2.663,0,0,1-1.769,1.3,2.959,2.959,0,0,1-2.175-.493,6.143,6.143,0,0,1-1.653-1.392,10.735,10.735,0,0,1-1.189-1.8,51.816,51.816,0,0,1-5.046-10.9q-.7-2.03-1.392-4.089t-1.218-4.089q-.812-2.958-1.537-5.945t-1.363-6q-.58-2.784-1.015-5.6t-.9-5.6a12.244,12.244,0,0,1,.58-5.742,1.914,1.914,0,0,1,1.16-1.16,1.141,1.141,0,0,1,1.276.348,22.868,22.868,0,0,1,2.9,4.582,37.924,37.924,0,0,1,1.972,5.046q.7,2.2,1.421,4.437t1.363,4.437q.638,2.2,1.189,4.437t1.189,4.437a60.511,60.511,0,0,1,1.595,6.525,35.585,35.585,0,0,0,1.827,6.409,3.347,3.347,0,0,0,.29.58q.232-.986.406-1.827t.348-1.653q.812-4.06,1.595-8.12t1.769-8.062q.522-2.2,1.247-4.408A13.3,13.3,0,0,1-6-39.73a.505.505,0,0,0,.145-.261,1.035,1.035,0,0,1,.087-.261,1.491,1.491,0,0,1,1.45-1.1A5.2,5.2,0,0,1-2.9-41.18a2.426,2.426,0,0,1,1.189.928A24.151,24.151,0,0,1,.464-36.54q.9,1.914,1.885,3.828,1.044,2.146,1.972,4.321t1.914,4.379Q8.323-19.6,10.527-15.08a4,4,0,0,0,.406.7q.29-.87.58-1.624a10.461,10.461,0,0,0,.464-1.566q.58-2.436,1.131-4.814T14.123-27.2Q15.167-32.48,16.3-37.729a101.08,101.08,0,0,1,2.813-10.353q.812-2.552,1.682-5.046a25.954,25.954,0,0,1,2.262-4.814A3.611,3.611,0,0,1,24.3-59.305,3.45,3.45,0,0,1,26.013-59.682Z" transform="translate(400.665 80.74)"/>
    <path id="Tracé_141" data-name="Tracé 141" d="M15.6,0a2.921,2.921,0,0,1-1.276-.174,4.118,4.118,0,0,1-1.131-.464,4.11,4.11,0,0,1-1.131-.986A20.547,20.547,0,0,1,9.4-6.9q-.928-2.784-1.624-5.742-.406-1.8-.7-3.6t-.464-3.654Q6.322-22.678,6-25.375t-.609-5.481q-.058-.754-.087-1.508t-.145-1.624q-.522.638-.9,1.189a5.31,5.31,0,0,0-.609,1.189,50.276,50.276,0,0,1-2.407,5.423Q-.116-23.548-1.508-20.88a18.379,18.379,0,0,0-1.1,2.233,18.379,18.379,0,0,1-1.1,2.233A17.415,17.415,0,0,1-4.7-14.877q-.522.725-1.044,1.421A35.307,35.307,0,0,1-8.41-10.527a11.691,11.691,0,0,1-3.248,2.233,10.954,10.954,0,0,1-6.148,1.218A5.1,5.1,0,0,1-20.445-8a8.683,8.683,0,0,1-2-2.03,8.439,8.439,0,0,1-1.363-2.61,15.755,15.755,0,0,1-.609-2.9,23.132,23.132,0,0,1-.145-5.539,50.494,50.494,0,0,1,.841-5.539q.464-2.03,1.015-3.973a19.318,19.318,0,0,1,1.537-3.8,29.653,29.653,0,0,1,5.916-7.83,47.121,47.121,0,0,1,4.582-3.828A32.492,32.492,0,0,1-5.51-49.126a40.948,40.948,0,0,1,5.6-2.2,41.018,41.018,0,0,1,5.771-1.334.646.646,0,0,0,.29-.058.515.515,0,0,1,.232-.058q.464-1.45.87-2.755t.87-2.639a1.324,1.324,0,0,1,.725-.9,2.37,2.37,0,0,1,1.363-.145,2.733,2.733,0,0,1,2.175,1.189,4.7,4.7,0,0,1,.841,2.059,9.872,9.872,0,0,1,.2,2.726q-.087,1.392-.2,2.726-.174,3.422-.29,6.815a57.408,57.408,0,0,0,.174,6.815q.348,4.292,1.015,8.439t1.6,8.323q.522,2.494,1.16,4.959t1.276,4.9q.348,1.392.783,2.726t.9,2.726q.058.232.174.812a1.987,1.987,0,0,1-.174,1.3,5.573,5.573,0,0,1-.87,1.073A3.631,3.631,0,0,1,17.951-.9q-.551.261-1.073.493Q16.24-.174,15.6,0Zm-27.84-14.268h.29a2.273,2.273,0,0,0,.522-.232A13.26,13.26,0,0,0-6.38-19.778q.522-.986.957-1.972t.957-1.972q.986-1.856,2.117-3.6a17.007,17.007,0,0,0,1.827-3.77A30.752,30.752,0,0,1,.812-34.162Q1.566-35.67,2.2-37.178l1.624-3.944a37.719,37.719,0,0,0,1.392-4q.174-.638.29-1.276a3.435,3.435,0,0,0-.058-1.392,7.119,7.119,0,0,0-1.189.319,7.659,7.659,0,0,0-1.073.493Q1.1-45.936-.9-44.776a39.139,39.139,0,0,0-3.857,2.552q-1.508,1.16-2.842,2.407a9.8,9.8,0,0,0-2.146,2.929q-.348.754-.725,1.479a14.438,14.438,0,0,0-.667,1.479q-.464,1.218-.9,2.465a23.4,23.4,0,0,0-.725,2.523,14.624,14.624,0,0,0-.406,2.233q-.116,1.131-.232,2.291a28.223,28.223,0,0,0-.2,3.828,23.342,23.342,0,0,0,.377,3.828,11.631,11.631,0,0,0,.319,1.305A3.15,3.15,0,0,0-12.238-14.268Z" transform="translate(24.665 80.74)"/>
    <path id="Tracé_148" data-name="Tracé 148" d="M-15.312-25a28.92,28.92,0,0,1,2.523,2.61A6.8,6.8,0,0,1-11.31-19.14a29.923,29.923,0,0,0,.754,3.277,10.722,10.722,0,0,0,1.45,3.045,11.722,11.722,0,0,0,1.334,1.537q.7.667,1.508,1.3a3.519,3.519,0,0,0,1.508.667,6.549,6.549,0,0,0,1.624.087,2.619,2.619,0,0,0,1.16-.464A10.9,10.9,0,0,0-.7-11.078a5.254,5.254,0,0,0,.87-1.74A22.372,22.372,0,0,0,1.1-18.27a16.994,16.994,0,0,0-.7-5.51A15.587,15.587,0,0,0-.87-27.057a31.361,31.361,0,0,0-1.8-2.987q-1.16-1.624-2.291-3.19t-2.117-3.248q-1.218-2.03-2.233-4.118A22.575,22.575,0,0,1-10.9-45.008a12.067,12.067,0,0,1-.29-3.538,12.891,12.891,0,0,1,.725-3.509,12.111,12.111,0,0,1,1.682-3.161A10.913,10.913,0,0,1-6.206-57.71l.928-.58.928-.58a7.3,7.3,0,0,1,2.871-1.015,8.76,8.76,0,0,1,3.016.116A11.124,11.124,0,0,1,4.35-58.754,10.333,10.333,0,0,1,6.67-57.13a32.286,32.286,0,0,1,3.77,4.408A10.271,10.271,0,0,1,11.513-50.9q.435.957.9,1.943.29.638.522,1.218t.522,1.218a1.468,1.468,0,0,1-.232,1.566,1.6,1.6,0,0,1-.406.464.7.7,0,0,1-.638.058.843.843,0,0,1-.87-.87q-.116-.522-.2-1.044a5.268,5.268,0,0,0-.261-.986A15.562,15.562,0,0,0,8.932-50.75,11.009,11.009,0,0,0,6.09-53.418a5.816,5.816,0,0,0-1.566-.725q-.87-.261-1.682-.493a2.123,2.123,0,0,0-1.044.029A1.9,1.9,0,0,0,.87-54a12.609,12.609,0,0,0-1.8,2.7,8.278,8.278,0,0,0-.812,3.1,4.25,4.25,0,0,0,.174,1.566,7.512,7.512,0,0,0,.58,1.392A47.091,47.091,0,0,0,1.537-40.8Q2.9-38.686,4.35-36.6q1.16,1.566,2.2,3.19t1.972,3.364a23.412,23.412,0,0,1,2.784,9.918,38.69,38.69,0,0,1-.145,5.423,26.369,26.369,0,0,1-1.073,5.249A14.317,14.317,0,0,1,7.511-4.147,11.838,11.838,0,0,1,2.726-.638a7.622,7.622,0,0,1-2.552.58,19.755,19.755,0,0,1-2.61-.058A15.181,15.181,0,0,1-9.86-2.726a18.261,18.261,0,0,1-2.349-2.03q-1.073-1.1-2.059-2.262a18.16,18.16,0,0,1-3.306-6.844,8.937,8.937,0,0,1-.261-3.1,15.178,15.178,0,0,1,.609-3.045,24.932,24.932,0,0,1,.928-2.465Q-15.776-23.664-15.312-25Z" transform="translate(67.665 84.74)"/>
    <path id="Tracé_149" data-name="Tracé 149" d="M-3.654-66.236q-.29-.058-.783-.116a7.076,7.076,0,0,0-.783-.058h-8.642q-.986,0-2,.087a14.6,14.6,0,0,1-2.059.029A5.2,5.2,0,0,1-19-66.41a9.729,9.729,0,0,1-1.073-.29,4.572,4.572,0,0,1-.87-.435,9.294,9.294,0,0,0-.87-.493,1.569,1.569,0,0,1,1.508-1.45q1.566-.174,3.132-.319t3.074-.319q2.494-.232,4.93-.348t4.872,0q.116,0,.464-.029a1.487,1.487,0,0,0,.464-.087l.232-1.624.232-1.624q.29-1.682.551-3.1t.551-3.1q.116-.87.29-1.74t.29-1.74v-.522A2.348,2.348,0,0,1,.638-86.42a7.7,7.7,0,0,1,1.943-.319,2.438,2.438,0,0,1,1.769.725,5.37,5.37,0,0,1,1.131,1.276A2.437,2.437,0,0,1,5.742-83a9.612,9.612,0,0,0-.087,1.682q.029.87.029,1.682a25.057,25.057,0,0,1-.2,3.277,25.056,25.056,0,0,0-.2,3.277v2.726H6.67q.7,0,1.392.058,2.61,0,5.162.2a31.224,31.224,0,0,1,5.1.841,5.878,5.878,0,0,1,1.131.348q.551.232,1.131.464a2.087,2.087,0,0,1,.319.261,1.437,1.437,0,0,0,.377.261,2.212,2.212,0,0,1-1.189.754,6.65,6.65,0,0,1-1.247.116q-1.334.058-2.581.029a23.494,23.494,0,0,0-2.581.087q-1.914.116-3.8.261t-3.8.261a2.292,2.292,0,0,1-.348.087,2.4,2.4,0,0,0-.464.145v1.305q0,.957-.029,2.291T5.22-59.769q0,1.479-.029,2.813t-.029,2.291v9.425q0,1.392.058,4.06t.145,6.032q.087,3.364.2,7.018t.319,6.989q.2,3.335.406,6.032a31.884,31.884,0,0,0,.493,4.031q.406,2.088.9,4.176A34.752,34.752,0,0,0,8.932-2.784a4.408,4.408,0,0,1,.174.725,4.408,4.408,0,0,0,.174.725q.174.464.348.9a6.734,6.734,0,0,0,.406.841q.464.812.9,1.566t.9,1.566a1.191,1.191,0,0,1,.145,1.189,1.642,1.642,0,0,1-1.073.725,7.836,7.836,0,0,1-2.755.087A15.09,15.09,0,0,1,5.51,4.872,8.5,8.5,0,0,1,2.117,2.929,13.493,13.493,0,0,1-.29-.232,27.5,27.5,0,0,1-2.7-6.061q-.841-2.987-1.479-6.119a22.155,22.155,0,0,1-.29-2.929q-.116-2.117-.2-4.9t-.145-5.916q-.058-3.132-.116-5.916t-.058-4.9v-2.929q.058-2.2.058-4.321t.116-4.263q.058-.7.145-2.059t.2-3.074q.116-1.711.232-3.567T-4-60.523q.116-1.711.2-3.074t.145-2.059Z" transform="translate(119.665 86.74)"/>
    <path id="Tracé_150" data-name="Tracé 150" d="M-10.382-18.676q.116-1.16.29-2.32t.29-2.32q.29-2.262.493-4.524t.551-4.524q.406-2.378.841-4.727T-6.9-41.818a48.068,48.068,0,0,1,1.537-4.988,28.992,28.992,0,0,1,2.233-4.7q.87-1.45,1.769-2.813A11.175,11.175,0,0,1,.87-56.782q.464-.406.957-.783a8.332,8.332,0,0,1,1.015-.667,2.661,2.661,0,0,1,1.334-.435,5.432,5.432,0,0,1,1.45.145,9.486,9.486,0,0,1,2.407.9,19.506,19.506,0,0,1,2.175,1.363q.464.232.522.406.638,1.1,1.247,2.146a10.143,10.143,0,0,1,.957,2.2,24.4,24.4,0,0,1,.725,3.016q.261,1.508.551,3.074a10.888,10.888,0,0,1,.2,1.8,7.914,7.914,0,0,0,.261,1.8,11.279,11.279,0,0,1,.261,3.857,15.141,15.141,0,0,0,.087,3.857,1.316,1.316,0,0,1,.029.725,3.472,3.472,0,0,0-.087.783q.058,1.334.087,2.726t.145,2.726q.174,2.2.406,4.466t.464,4.466q.174,2.2.319,4.437t.435,4.437a7.174,7.174,0,0,0,.406,1.566q.29.754.522,1.566a5.278,5.278,0,0,1,.174,1.392,6.4,6.4,0,0,1-.145,1.363,6.466,6.466,0,0,1-.435,1.305,1.514,1.514,0,0,1-1.972,1.1A9.333,9.333,0,0,1,9.048-6.09a36.517,36.517,0,0,1-2.7-7.163,46.585,46.585,0,0,1-1.305-7.511q-.464-4.7-.609-9.4t.145-9.4a46.16,46.16,0,0,0,.029-5.423q-.145-2.7-.261-5.423a1.093,1.093,0,0,0-.087-.435,4.871,4.871,0,0,1-.2-.667Q3.538-50.692,3.1-50a11.554,11.554,0,0,0-.725,1.334Q1.16-46.11.2-43.529a37.276,37.276,0,0,0-1.537,5.365A18.186,18.186,0,0,1-1.8-36.192q-.29.986-.522,1.972-.29,1.16-.493,2.378t-.435,2.378q-.638,2.958-1.044,5.916-.464,2.726-.783,5.423T-5.8-12.7q-.232,1.566-.551,3.074a19.828,19.828,0,0,1-.9,3.016A6.871,6.871,0,0,1-8.758-4.2q-.986,1.015-2.03,1.943a7.563,7.563,0,0,1-1.421,1.015q-.783.435-1.6.841a2.412,2.412,0,0,1-1.827.261,3.2,3.2,0,0,1-1.421-1.247,16.332,16.332,0,0,1-1.392-2.552,11.517,11.517,0,0,1-.812-2.784q-.29-1.856-.464-3.654t-.406-3.654q-.116-1.276-.29-2.552l-.348-2.552q-.522-4.292-.9-8.526T-22.1-36.25q-.116-6.9-.174-13.746t-.116-13.746q-.058-4.93,0-9.8t.058-9.8a3.157,3.157,0,0,1,.667-1.972,2.758,2.758,0,0,1,1.885-1.044,4.278,4.278,0,0,1,3.074.812,4.379,4.379,0,0,1,1.537,1.682,10.449,10.449,0,0,1,.783,2.146,21.869,21.869,0,0,1,.609,4.292q.087,2.146.2,4.292.058,1.972.174,3.886l.232,3.828q.058,1.1.058,2.175t.058,2.175q.058,1.044.087,2.088t.145,2.088q.116,1.8.261,3.567t.319,3.567a31.064,31.064,0,0,1,.2,4.814q-.087,2.378-.2,4.814a11.211,11.211,0,0,0,.058,1.972l.232,1.972.116,2.2q.058,1.1.174,2.262.116,1.566.174,3.132t.174,3.19q.116,1.45.2,2.842t.2,2.842q.058.29.116.551t.116.551A.646.646,0,0,0-10.382-18.676Z" transform="translate(163.665 86.74)"/>
    <path id="Tracé_151" data-name="Tracé 151" d="M17.429-23.548q-1.1,2.436-2.233,4.814t-2.407,4.756A33.952,33.952,0,0,1,10.15-9.657Q8.671-7.6,6.989-5.684A17.347,17.347,0,0,1,1.218-1.131a13.424,13.424,0,0,1-7.4,1.073A14.946,14.946,0,0,1-13.6-2.784a17.687,17.687,0,0,1-5.1-6.09,30.681,30.681,0,0,1-2.175-5.655,35.071,35.071,0,0,1-1.073-5.945,35.146,35.146,0,0,1-.261-4.7q.029-2.32.145-4.7a39.836,39.836,0,0,1,.522-4.814,42.215,42.215,0,0,1,1.1-4.756,52.4,52.4,0,0,1,2.407-6.728,26.223,26.223,0,0,1,3.741-6.09,20.3,20.3,0,0,1,3.074-3.1,22.527,22.527,0,0,1,3.654-2.407,21.266,21.266,0,0,1,3.451-1.421,15.369,15.369,0,0,1,3.625-.667,18.29,18.29,0,0,1,4.118.232,9.32,9.32,0,0,1,3.886,1.682q.464.348.957.667t1.015.609a12.965,12.965,0,0,1,3.1,2.784,29.981,29.981,0,0,1,2.407,3.48,10.481,10.481,0,0,1,1.392,3.944,13.391,13.391,0,0,1-.116,4.292A22.708,22.708,0,0,1,9.483-29.812Q7.917-28.3,6.293-26.883a35,35,0,0,1-3.422,2.639,27.036,27.036,0,0,1-5.307,2.726,18.424,18.424,0,0,1-5.887,1.16,4.8,4.8,0,0,0-.522.116,25.335,25.335,0,0,0,1.218,4.7,13.5,13.5,0,0,0,2.378,4.06A8.937,8.937,0,0,0-2.262-9.222a10.083,10.083,0,0,0,3.625.87,2.318,2.318,0,0,0,1.421-.319q.609-.377,1.247-.841a20.012,20.012,0,0,0,2.436-2.523A27.407,27.407,0,0,0,8.5-14.906q1.334-2.03,2.436-4.118a43.062,43.062,0,0,0,1.972-4.292,7.415,7.415,0,0,1,1.073-1.769,2.741,2.741,0,0,1,1.769-.9,2.991,2.991,0,0,1,1.218.348,1.97,1.97,0,0,1,.638.783A1.511,1.511,0,0,1,17.429-23.548Zm-26.8-.058q.754-.116,1.363-.174a6.16,6.16,0,0,0,1.189-.232,17.571,17.571,0,0,0,3.857-1.363A21.725,21.725,0,0,0,.493-27.492q1.334-.986,2.552-2T5.423-31.61A16.877,16.877,0,0,0,9.251-36.6a20.777,20.777,0,0,0,1.914-5.974,6.611,6.611,0,0,0,0-2.755,5.7,5.7,0,0,0-1.276-2.465A8.5,8.5,0,0,0,5.51-50.663a7.2,7.2,0,0,0-5.133.609,13.234,13.234,0,0,0-3.915,2.871A16.768,16.768,0,0,0-6.293-43.21a30.534,30.534,0,0,0-2.668,7.946,40.525,40.525,0,0,0-.667,4.524,32.851,32.851,0,0,0-.087,4.582q.058.638.145,1.247T-9.367-23.606Z" transform="translate(209.665 97.74)"/>
</svg>