<svg width="134" height="41" viewBox="0 0 134 41" fill="none" xmlns="http://www.w3.org/2000/svg">
<g clip-path="url(#clip0)">
<path d="M39.6623 27.3989C39.6623 27.4078 39.6534 27.4167 39.6534 27.4256C39.6534 27.4345 39.6445 27.4434 39.6445 27.4434C36.814 35.3531 29.272 41.0002 20.4256 41.0002C9.13918 41.0002 0 31.8258 0 20.5047C0 20.0059 0.017746 19.516 0.053238 19.0261C0.053238 19.0172 0.053238 19.0172 0.053238 19.0083L0.062111 18.9548C0.062111 18.9637 0.062111 18.9727 0.062111 18.9816L23.1585 14.7773L10.692 27.292C10.5944 27.4345 10.5056 27.5859 10.4346 27.7463C10.1685 28.3163 10.0797 28.9577 10.1951 29.6168C10.4346 30.9262 11.455 31.906 12.6973 32.1375C12.8925 32.1732 13.0877 32.191 13.2829 32.191C13.3272 32.191 13.3805 32.191 13.4248 32.191L14.2678 32.0396L39.6623 27.3989Z" fill="url(#paint0_linear)"/>
<path d="M40.8427 20.5045C40.8427 21.0567 40.8249 21.6089 40.7805 22.1523C40.7805 22.1612 40.7805 22.1701 40.7805 22.1701C40.7805 22.179 40.7805 22.1879 40.7805 22.1879L18.6335 26.2496L30.6565 14.2961L30.7718 14.1803C31.0291 13.9131 31.2332 13.6103 31.384 13.2807C31.6414 12.7195 31.7301 12.0693 31.6147 11.4191C31.3752 10.083 30.3193 9.09429 29.0504 8.8627C28.873 8.82707 28.6866 8.81816 28.4914 8.81816H28.456L27.4001 9.01412L1.11825 13.8151C1.11825 13.824 1.10938 13.8329 1.10938 13.8418L1.11825 13.7973C1.11825 13.7884 1.12712 13.7795 1.12712 13.7795C3.90437 5.75407 11.4908 0 20.4259 0C31.7035 0 40.8427 9.17445 40.8427 20.5045Z" fill="url(#paint1_linear)"/>
<path d="M60.9574 28.1645H54.3293L61.685 18.3844C61.8447 18.1795 61.9246 17.9123 61.9246 17.5471C61.9246 16.7276 61.5164 16.3179 60.7001 16.3179H51.8182C51.0019 16.3179 50.5938 16.7276 50.5938 17.5471C50.5938 18.3665 51.0019 18.7763 51.8182 18.7763H58.4641L51.0906 28.5564C50.9309 28.7613 50.8511 29.0285 50.8511 29.3937C50.8511 30.2132 51.2592 30.6229 52.0755 30.6229H60.9574C61.7737 30.6229 62.1819 30.2132 62.1819 29.3937C62.1819 28.5742 61.7737 28.1645 60.9574 28.1645Z" fill="black"/>
<path d="M74.8436 17.1194C73.8676 16.5226 72.7052 16.2197 71.3565 16.2197C69.9812 16.2197 68.7656 16.5315 67.7097 17.1461C66.6538 17.7607 65.8198 18.6158 65.2253 19.7114C64.6219 20.798 64.3291 22.0629 64.3291 23.488C64.3291 24.9043 64.6485 26.1513 65.2785 27.238C65.9085 28.3247 66.7869 29.1798 67.9138 29.8033C69.0318 30.4179 70.3184 30.7296 71.7558 30.7296C72.5544 30.7296 73.3884 30.5782 74.2669 30.2842C75.1453 29.9903 75.8817 29.6073 76.4674 29.1352C76.7602 28.9125 76.9021 28.6364 76.8844 28.3247C76.8666 28.0129 76.7069 27.719 76.4141 27.4607C76.1923 27.2647 75.9261 27.1756 75.6156 27.1845C75.3139 27.1934 75.0299 27.2914 74.7726 27.4874C74.4266 27.7457 73.9652 27.9773 73.4062 28.1821C72.8383 28.387 72.2882 28.485 71.7558 28.485C70.762 28.485 69.8925 28.2712 69.1205 27.8348C68.3574 27.3983 67.7541 26.8104 67.3193 26.0533C67.0265 25.5545 66.849 25.0023 66.7514 24.4055H76.6448C76.9909 24.4055 77.2748 24.2986 77.5055 24.0759C77.7273 23.8621 77.8427 23.586 77.8427 23.2564C77.8427 21.8758 77.5854 20.6644 77.0707 19.6045C76.5561 18.5534 75.8108 17.725 74.8436 17.1194ZM68.81 19.1235C69.5109 18.687 70.3627 18.4733 71.3476 18.4733C72.2172 18.4733 72.9537 18.6781 73.5659 19.0789C74.1693 19.4798 74.6395 20.0231 74.9767 20.709C75.2074 21.1989 75.3582 21.7333 75.4381 22.3212H66.778C66.8668 21.8224 67.0087 21.3503 67.2128 20.9227C67.5766 20.1567 68.109 19.5599 68.81 19.1235Z" fill="black"/>
<path d="M91.5253 16.959C90.5759 16.4424 89.5022 16.1841 88.3044 16.1841C87.1598 16.1841 86.1216 16.4335 85.2077 16.9412C84.7019 17.2173 84.2672 17.5558 83.8768 17.9388V17.6538C83.8768 17.253 83.7525 16.9323 83.513 16.6829C83.2734 16.4424 82.9451 16.3177 82.5458 16.3177C82.1643 16.3177 81.8448 16.4424 81.5964 16.6829C81.3479 16.9234 81.2148 17.253 81.2148 17.6538V29.3134C81.2148 29.6964 81.3391 30.017 81.5964 30.2664C81.8448 30.5158 82.1643 30.6494 82.5458 30.6494C82.9451 30.6494 83.2645 30.5247 83.513 30.2664C83.7525 30.017 83.8768 29.6964 83.8768 29.3134V21.9382C83.8768 21.2968 84.0542 20.7268 84.4003 20.228C84.7463 19.7292 85.2166 19.3372 85.8111 19.0344C86.4056 18.7405 87.0622 18.589 87.7898 18.589C88.5883 18.589 89.2982 18.7405 89.9104 19.0433C90.5226 19.3462 91.0195 19.8182 91.3833 20.4417C91.7471 21.0652 91.9335 21.8758 91.9335 22.8734V29.3044C91.9335 29.6875 92.0577 30.0081 92.315 30.2575C92.5634 30.5069 92.8829 30.6405 93.2644 30.6405C93.6459 30.6405 93.9654 30.5158 94.2138 30.2575C94.4623 30.0081 94.5954 29.6875 94.5954 29.3044V22.8734C94.5954 21.4304 94.3203 20.2102 93.779 19.2125C93.22 18.2327 92.4747 17.4756 91.5253 16.959Z" fill="black"/>
<path d="M100.575 16.3271C100.194 16.3271 99.8741 16.4518 99.6257 16.6923C99.3772 16.9328 99.2441 17.2624 99.2441 17.6632V29.2961C99.2441 29.6791 99.3684 29.9997 99.6257 30.2491C99.8741 30.4986 100.194 30.6322 100.575 30.6322C100.974 30.6322 101.294 30.5075 101.542 30.2491C101.782 29.9997 101.906 29.6791 101.906 29.2961V17.6543C101.906 17.2535 101.782 16.9328 101.542 16.6834C101.294 16.4429 100.974 16.3271 100.575 16.3271Z" fill="black"/>
<path d="M100.575 10.5464C100.105 10.5464 99.7053 10.7156 99.3593 11.0541C99.0221 11.3926 98.8535 11.8023 98.8535 12.2655C98.8535 12.7287 99.0221 13.1384 99.3593 13.4769C99.6965 13.8153 100.105 13.9846 100.575 13.9846C101.045 13.9846 101.444 13.8153 101.79 13.4769C102.128 13.1384 102.296 12.7287 102.296 12.2655C102.296 11.8023 102.128 11.3926 101.79 11.0541C101.453 10.7156 101.045 10.5464 100.575 10.5464Z" fill="black"/>
<path d="M112.572 22.5174L117.354 18.2331C117.611 17.9926 117.753 17.7075 117.771 17.3958C117.789 17.084 117.674 16.7901 117.434 16.5318C117.212 16.2735 116.937 16.1309 116.618 16.1131C116.298 16.0953 116.005 16.2111 115.748 16.4516L109.422 22.1255V11.4814C109.422 11.0984 109.306 10.7866 109.067 10.555C108.836 10.3234 108.525 10.1987 108.144 10.1987C107.762 10.1987 107.452 10.3145 107.221 10.555C106.99 10.7866 106.866 11.0984 106.866 11.4814V29.3404C106.866 29.7234 106.982 30.0351 107.221 30.2667C107.452 30.4983 107.762 30.623 108.144 30.623C108.525 30.623 108.836 30.5072 109.067 30.2667C109.297 30.0351 109.422 29.7234 109.422 29.3404V25.341L110.717 24.1831L115.668 30.338C115.89 30.6141 116.174 30.7655 116.511 30.7923C116.848 30.819 117.159 30.721 117.434 30.4894C117.727 30.2489 117.886 29.9639 117.913 29.6432C117.94 29.3226 117.842 29.0197 117.611 28.7436L112.572 22.5174Z" fill="black"/>
<path d="M133.051 19.7737C132.421 18.6781 131.56 17.8052 130.486 17.1728C129.413 16.5404 128.197 16.2197 126.839 16.2197C125.482 16.2197 124.266 16.5404 123.184 17.1728C122.101 17.8052 121.241 18.6781 120.602 19.7737C119.972 20.8693 119.652 22.1074 119.652 23.488C119.652 24.8687 119.945 26.0978 120.522 27.1845C121.108 28.2712 121.897 29.1352 122.909 29.7765C123.911 30.4089 125.056 30.7296 126.325 30.7296C127.594 30.7296 128.729 30.4089 129.741 29.7765C130.362 29.3846 130.894 28.9036 131.356 28.3425V29.3134C131.356 29.6964 131.48 30.017 131.737 30.2664C131.986 30.5158 132.305 30.6494 132.687 30.6494C133.068 30.6494 133.388 30.5247 133.636 30.2664C133.885 30.017 134.018 29.6964 134.018 29.3134V23.4791C134 22.1074 133.681 20.8693 133.051 19.7737ZM129.209 27.7368C128.516 28.1643 127.727 28.3781 126.839 28.3781C125.97 28.3781 125.189 28.1643 124.479 27.7368C123.778 27.3092 123.219 26.7303 122.811 25.9821C122.403 25.2428 122.199 24.4055 122.199 23.488C122.199 22.5439 122.403 21.7066 122.811 20.9673C123.219 20.228 123.778 19.6401 124.479 19.2126C125.18 18.785 125.97 18.5712 126.839 18.5712C127.727 18.5712 128.516 18.785 129.209 19.2126C129.901 19.6401 130.451 20.228 130.85 20.9673C131.249 21.7066 131.453 22.5528 131.453 23.488C131.453 24.4144 131.249 25.2428 130.85 25.9821C130.442 26.7214 129.901 27.3092 129.209 27.7368Z" fill="black"/>
</g>
<defs>
<linearGradient id="paint0_linear" x1="-12.7883" y1="64.0339" x2="48.6756" y2="-11.122" gradientUnits="userSpaceOnUse">
<stop stop-color="#EE2238"/>
<stop offset="1" stop-color="#BF1D67"/>
</linearGradient>
<linearGradient id="paint1_linear" x1="-11.7018" y1="49.3067" x2="49.8153" y2="-25.9722" gradientUnits="userSpaceOnUse">
<stop stop-color="#EE2238"/>
<stop offset="1" stop-color="#BF1D67"/>
</linearGradient>
<clipPath id="clip0">
<rect width="134" height="41" fill="white"/>
</clipPath>
</defs>
</svg>
