<svg xmlns="http://www.w3.org/2000/svg" xmlns:xlink="http://www.w3.org/1999/xlink" width="1024" height="1024" viewBox="0 0 1024 1024"><defs><filter id="a" x="-160.688" y="-140.688" width="1345.377" height="1345.376" filterUnits="userSpaceOnUse"><feOffset dy="20" input="SourceAlpha"/><feGaussianBlur stdDeviation="10" result="b"/><feFlood flood-opacity="0.153"/><feComposite operator="in" in2="b"/><feComposite in="SourceGraphic"/></filter><radialGradient id="c" cx="0.5" cy="0.5" r="0.822" gradientTransform="translate(0 1) rotate(-90.025)" gradientUnits="objectBoundingBox"><stop offset="0" stop-color="#fff"/><stop offset="1" stop-color="#fff" stop-opacity="0"/></radialGradient><filter id="d" x="217.123" y="172.988" width="88.395" height="88.394" filterUnits="userSpaceOnUse"><feOffset dy="3" input="SourceAlpha"/><feGaussianBlur stdDeviation="3" result="e"/><feFlood flood-opacity="0.161"/><feComposite operator="in" in2="e"/><feComposite in="SourceGraphic"/></filter><clipPath id="g"><rect width="1024" height="1024"/></clipPath></defs><g id="f" clip-path="url(#g)"><g transform="translate(-130.688 455.772) rotate(-40)" opacity="0.997"><g transform="matrix(0.77, 0.64, -0.64, 0.77, 393.08, -265.14)" filter="url(#a)"><rect width="912.37" height="912.37" rx="456" transform="translate(-130.69 455.77) rotate(-40)"/></g><g transform="translate(47.074 47.074)" fill="none" stroke-linecap="round" stroke-dasharray="1 159.6" opacity="0.298"><path d="M409.112,0C635.058,0,818.224,183.166,818.224,409.112S635.058,818.224,409.112,818.224,0,635.058,0,409.112,183.165,0,409.112,0Z" stroke="none"/><path d="M 409.1116943359375 -6.103515625e-05 C 409.4978332519531 -6.103515625e-05 409.9009399414062 0.00054931640625 410.2868347167969 0.0015869140625 C 421.298828125 0.05535888671875 430.1907958984375 9.00634765625 430.1617126464844 20.02764892578125 C 430.1325988769531 31.06463623046875 421.1694641113281 40.00128173828125 410.1359558105469 40.00128173828125 C 410.127197265625 40.00128173828125 410.1177673339844 40.00128173828125 410.1089782714844 40.001220703125 L 409.1116943359375 39.99993896484375 C 398.0659790039062 39.98541259765625 389.1116943359375 31.01922607421875 389.1116943359375 19.9735107421875 C 389.1116943359375 8.94805908203125 398.033203125 0.01812744140625 409.051025390625 0 C 409.0647888183594 0 409.097900390625 -6.103515625e-05 409.1116943359375 -6.103515625e-05 Z M 558.0594482421875 29.51031494140625 C 560.5960083007812 29.51055908203125 563.1773681640625 29.9974365234375 565.6678466796875 31.02423095703125 C 565.7517700195312 31.05902099609375 565.8270263671875 31.0902099609375 565.9109497070312 31.12506103515625 C 565.9149169921875 31.126708984375 565.9189453125 31.12841796875 565.9229736328125 31.13006591796875 C 565.9589233398438 31.14501953125 565.989501953125 31.15771484375 566.0254516601562 31.17266845703125 C 566.047607421875 31.181884765625 566.06982421875 31.19110107421875 566.0919189453125 31.2003173828125 C 566.1038818359375 31.20526123046875 566.1361694335938 31.21868896484375 566.1481323242188 31.22369384765625 C 566.1749267578125 31.23480224609375 566.20166015625 31.24591064453125 566.2283935546875 31.257080078125 C 566.2404174804688 31.2620849609375 566.2733154296875 31.2757568359375 566.2852783203125 31.28076171875 C 566.3101806640625 31.2911376953125 566.3350219726562 31.30145263671875 566.35986328125 31.31182861328125 C 566.515625 31.376708984375 566.6529541015625 31.43408203125 566.8086547851562 31.4991455078125 C 576.9650268554688 35.76531982421875 581.7510986328125 47.4427490234375 577.500244140625 57.6142578125 C 574.2911376953125 65.29339599609375 566.846923828125 69.92291259765625 559.0093383789062 69.92291259765625 C 556.445068359375 69.92291259765625 553.83837890625 69.42724609375 551.3245849609375 68.38067626953125 L 550.4085693359375 67.999267578125 C 540.2113037109375 63.75396728515625 535.3751220703125 52.041259765625 539.606689453125 41.8382568359375 C 542.79638671875 34.14739990234375 550.2259521484375 29.50958251953125 558.0594482421875 29.51031494140625 Z M 684.2867431640625 113.9863891601562 C 689.4067993164062 113.986572265625 694.5271606445312 115.9445190429688 698.4305419921875 119.8592529296875 C 698.4749145507812 119.903564453125 698.5191650390625 119.9478759765625 698.5634765625 119.9922485351562 C 698.79833984375 120.2273559570312 699.0319213867188 120.4617919921875 699.2661743164062 120.6974487304688 C 707.0067138671875 128.5238037109375 706.9599609375 141.13427734375 699.1473999023438 148.9035034179688 C 695.2418212890625 152.7874145507812 690.13427734375 154.7275390625 685.0261840820312 154.7275390625 C 679.8905029296875 154.7275390625 674.7543334960938 152.7649536132812 670.84423828125 148.843505859375 L 670.1431274414062 148.1402587890625 C 662.343994140625 140.3185424804688 662.3538818359375 127.6466674804688 670.1651611328125 119.8370971679688 C 674.0670166015625 115.9361572265625 679.1766967773438 113.9862060546875 684.2867431640625 113.9863891601562 Z M 768.743896484375 240.2205200195312 C 776.5587158203125 240.220947265625 783.9721069335938 244.8385009765625 787.1731567382812 252.492431640625 C 787.2477416992188 252.6723022460938 787.3171997070312 252.840087890625 787.3915405273438 253.0200805664062 C 787.3961181640625 253.0311889648438 787.4006958007812 253.0422973632812 787.4052734375 253.0534057617188 C 787.4102783203125 253.0654296875 787.4196166992188 253.0880737304688 787.424560546875 253.10009765625 C 787.49267578125 253.2650756835938 787.5606689453125 253.4301147460938 787.6285400390625 253.59521484375 C 791.843994140625 263.804931640625 786.9801025390625 275.487548828125 776.7647094726562 279.6890869140625 C 774.2738037109375 280.713623046875 771.6961059570312 281.1985473632812 769.1588745117188 281.1985473632812 C 761.29052734375 281.1985473632812 753.822998046875 276.5306396484375 750.6354370117188 268.8103637695312 L 750.2567138671875 267.8931274414062 C 746.041259765625 257.6834106445312 750.89599609375 245.9783935546875 761.099853515625 241.7490844726562 C 763.6029052734375 240.711669921875 766.1943359375 240.2203979492188 768.743896484375 240.2205200195312 Z M 798.2499389648438 389.2012329101562 C 798.2512817382812 389.2012329101562 798.2530517578125 389.2012329101562 798.25439453125 389.2012329101562 C 809.278564453125 389.2037963867188 818.2056274414062 398.1241760253906 818.2235717773438 409.14013671875 C 818.2235717773438 409.1815185546875 818.2235717773438 409.2217407226562 818.2235107421875 409.2630920410156 C 818.2233276367188 409.60693359375 818.2227783203125 409.9508361816406 818.2218627929688 410.2945251464844 C 818.2218627929688 410.3083190917969 818.2216796875 410.3532104492188 818.2216796875 410.3669738769531 C 818.1731567382812 421.3667907714844 809.2495727539062 430.2513427734375 798.2493896484375 430.2513427734375 C 798.2305297851562 430.2513427734375 798.2098388671875 430.2513122558594 798.1909790039062 430.2512512207031 C 787.1454467773438 430.2195434570312 778.2050170898438 421.2396850585938 778.2219848632812 410.1939697265625 L 778.2235717773438 409.1968078613281 C 778.2405395507812 398.1524353027344 787.2060546875 389.2012329101562 798.2499389648438 389.2012329101562 Z M 768.6873168945312 538.1553955078125 C 771.2442626953125 538.1556396484375 773.8447875976562 538.6486206054688 776.352294921875 539.6893920898438 C 786.5541381835938 543.9237060546875 791.3804321289062 555.6219482421875 787.1322631835938 565.8179931640625 C 786.99169921875 566.1567993164062 786.8505859375 566.4955444335938 786.708984375 566.833984375 C 783.51123046875 574.5089721679688 776.0900268554688 579.1317749023438 768.2684326171875 579.1317749023438 C 765.6992797851562 579.1317749023438 763.08544921875 578.6324462890625 760.5658569335938 577.5786743164062 C 750.3754272460938 573.316650390625 745.5584106445312 561.5960693359375 749.8065795898438 551.3999633789062 L 750.1881103515625 550.484130859375 C 753.3921508789062 542.7940673828125 760.8413696289062 538.15478515625 768.6873168945312 538.1553955078125 Z M 684.1522827148438 664.359619140625 C 689.2803955078125 664.360107421875 694.4098510742188 666.316650390625 698.3185424804688 670.2279663085938 C 706.107666015625 678.0226440429688 706.11328125 690.6360473632812 698.3452758789062 698.437744140625 C 698.0921630859375 698.6907958984375 697.8381958007812 698.9440307617188 697.5844116210938 699.1964111328125 C 697.559814453125 699.2208862304688 697.53515625 699.245361328125 697.5105590820312 699.2698364257812 C 693.6107177734375 703.1565551757812 688.5108642578125 705.098388671875 683.411376953125 705.098388671875 C 678.28076171875 705.098388671875 673.1505737304688 703.1322631835938 669.2452392578125 699.2032470703125 C 661.4584350585938 691.3692626953125 661.48828125 678.697509765625 669.31201171875 670.9002685546875 L 670.015380859375 670.1990966796875 C 673.9224243164062 666.3052368164062 679.0366821289062 664.359130859375 684.1522827148438 664.359619140625 Z M 557.8709716796875 748.7693481445312 C 565.73095703125 748.7698364257812 573.1923828125 753.427001953125 576.3857421875 761.1361083984375 C 580.6053466796875 771.3228759765625 575.7794189453125 782.9878540039062 565.6058959960938 787.2200927734375 C 565.5579223632812 787.239990234375 565.534423828125 787.2496948242188 565.4864501953125 787.2695922851562 C 565.4808349609375 787.2719116210938 565.4751586914062 787.2742309570312 565.4695434570312 787.2765502929688 C 565.1936645507812 787.3907470703125 564.9315185546875 787.4989624023438 564.6552734375 787.6126098632812 C 564.6148681640625 787.6292114257812 564.5745239257812 787.6458129882812 564.5341186523438 787.6624145507812 C 562.0394287109375 788.6917724609375 559.45849609375 789.1790161132812 556.918701171875 789.1790161132812 C 549.0635375976562 789.1790161132812 541.615966796875 784.5133056640625 538.4423828125 776.7930908203125 C 534.2429809570312 766.5768432617188 539.1158447265625 754.87939453125 549.326416015625 750.6660766601562 L 550.2440185546875 750.2875366210938 C 552.7412109375 749.257080078125 555.326416015625 748.7691650390625 557.8709716796875 748.7693481445312 Z M 407.9164733886719 778.2218017578125 C 407.9279479980469 778.2218017578125 407.9409484863281 778.2218017578125 407.9524230957031 778.2218017578125 L 408.9495544433594 778.2235107421875 C 419.9952697753906 778.2427978515625 428.9457092285156 787.2128295898438 428.9409790039062 798.2583618164062 C 428.936279296875 809.2785034179688 420.0213012695312 818.2013549804688 409.0109252929688 818.2235107421875 C 408.735107421875 818.2234497070312 408.474609375 818.22314453125 408.1989440917969 818.2225341796875 C 408.0758666992188 818.2222290039062 407.9527893066406 818.221923828125 407.8297119140625 818.2215576171875 C 396.7841186523438 818.2022705078125 387.8572692871094 809.2323608398438 387.8911437988281 798.1866455078125 C 387.9249572753906 787.152587890625 396.8866577148438 778.220947265625 407.9164733886719 778.2218017578125 Z M 259.0572509765625 748.2350463867188 C 261.6239624023438 748.2352294921875 264.2342529296875 748.73193359375 266.7501220703125 749.7806396484375 L 267.666015625 750.162353515625 C 277.8613891601562 754.4122314453125 282.6922607421875 766.1270751953125 278.456298828125 776.3282470703125 C 275.264404296875 784.0145874023438 267.8367919921875 788.6480102539062 260.0067749023438 788.6480102539062 C 257.4595947265625 788.6480102539062 254.868408203125 788.1570434570312 252.3682861328125 787.12158203125 C 252.3563232421875 787.1166381835938 252.3513793945312 787.1145629882812 252.3394165039062 787.109619140625 C 252.3350219726562 787.1077880859375 252.3302001953125 787.1057739257812 252.3258666992188 787.1039428710938 C 252.0291137695312 786.9807739257812 251.732666015625 786.8572387695312 251.436279296875 786.7333374023438 C 251.3644409179688 786.7033081054688 251.3197631835938 786.6846313476562 251.2479248046875 786.654541015625 C 241.0947265625 782.38330078125 236.3145751953125 770.70458984375 240.5697021484375 760.5355224609375 C 243.7813110351562 752.8602905273438 251.2225341796875 748.2344360351562 259.0572509765625 748.2350463867188 Z M 133.0773315429688 663.3753662109375 C 138.2161254882812 663.3755493164062 143.3546142578125 665.3399047851562 147.2654418945312 669.265380859375 L 147.9662475585938 669.968994140625 C 155.761962890625 677.7942504882812 155.7467041015625 690.4659423828125 147.9318237304688 698.2720947265625 C 144.0307006835938 702.1690673828125 138.9234008789062 704.1167602539062 133.8164672851562 704.1167602539062 C 128.710205078125 704.1167602539062 123.6038208007812 702.1690063476562 119.7046508789062 698.2759399414062 C 119.6775512695312 698.2488403320312 119.6630249023438 698.2342529296875 119.6359252929688 698.2071533203125 C 119.6203002929688 698.1914672851562 119.6046752929688 698.1758422851562 119.5890502929688 698.16015625 C 119.5709838867188 698.14208984375 119.5523681640625 698.1234130859375 119.5343017578125 698.1053466796875 C 119.5177612304688 698.0887451171875 119.5011596679688 698.0721435546875 119.4845581054688 698.0555419921875 C 119.4755859375 698.0464477539062 119.4466552734375 698.0175170898438 119.4376831054688 698.0084838867188 C 119.4182739257812 697.989013671875 119.3988647460938 697.9696044921875 119.3795166015625 697.9501342773438 C 119.3524169921875 697.9229736328125 119.333984375 697.9044799804688 119.3069458007812 697.8773193359375 C 119.2990112304688 697.869384765625 119.2910766601562 697.8614501953125 119.2831420898438 697.8534545898438 C 119.1297607421875 697.6995239257812 118.984619140625 697.5535888671875 118.83154296875 697.3994140625 C 111.0943603515625 689.5697021484375 111.1463012695312 676.9590454101562 118.9622802734375 669.1932373046875 C 122.8671264648438 665.3134155273438 127.9723510742188 663.3751220703125 133.0773315429688 663.3753662109375 Z M 49.0001220703125 536.8675537109375 C 56.8719482421875 536.8677978515625 64.34130859375 541.5390625 67.5267333984375 549.2637939453125 L 67.9051513671875 550.181396484375 C 72.115966796875 560.3929443359375 67.25628662109375 572.0958251953125 57.0504150390625 576.320556640625 C 54.550048828125 577.3555908203125 51.96099853515625 577.845703125 49.41455078125 577.845703125 C 41.5670166015625 577.845703125 34.12579345703125 573.190185546875 30.946533203125 565.4804077148438 C 30.8804931640625 565.3206787109375 30.814453125 565.1610107421875 30.74853515625 565.001220703125 C 30.66436767578125 564.7971801757812 30.58453369140625 564.6030883789062 30.50067138671875 564.3988647460938 C 26.33612060546875 554.202392578125 31.2061767578125 542.5619506835938 41.40228271484375 538.3736572265625 C 43.8905029296875 537.3515625 46.4659423828125 536.8674926757812 49.0001220703125 536.8675537109375 Z M 19.97418212890625 387.8015747070312 C 19.99639892578125 387.8015747070312 20.019287109375 387.8016052246094 20.04156494140625 387.8016662597656 C 31.0872802734375 387.8379516601562 40.02386474609375 396.8218078613281 40.00201416015625 407.8674011230469 L 40.0001220703125 408.8645324707031 C 39.978271484375 419.9061889648438 31.01422119140625 428.8513793945312 19.97406005859375 428.8513793945312 C 19.969970703125 428.8513793945312 19.964599609375 428.8513793945312 19.9605712890625 428.8513793945312 C 8.91497802734375 428.84423828125 -0.021728515625 419.8840942382812 0.0001220703125 408.83837890625 C 0.00018310546875 408.7557067871094 0.000244140625 408.6730041503906 0.00030517578125 408.5903625488281 C 0.0006103515625 408.3421936035156 0.00115966796875 408.0842895507812 0.001953125 407.8362426757812 C 0.0020751953125 407.8027648925781 0.00213623046875 407.769287109375 0.00225830078125 407.7358093261719 C 0.0023193359375 407.7283935546875 0.0023193359375 407.7208557128906 0.0023193359375 407.7134399414062 C 0.0023193359375 407.7134399414062 0.00238037109375 407.6974487304688 0.00238037109375 407.6974487304688 C 0.04473876953125 396.6917114257812 8.9720458984375 387.8012084960938 19.97418212890625 387.8015747070312 Z M 50.0166015625 238.932861328125 C 52.58880615234375 238.9329223632812 55.20428466796875 239.4330444335938 57.7265625 240.4890747070312 C 67.915283203125 244.755126953125 72.72772216796875 256.4776611328125 68.47540283203125 266.6719360351562 L 68.09356689453125 267.5878295898438 C 64.887451171875 275.2741088867188 57.4404296875 279.9090576171875 49.5972900390625 279.9090576171875 C 47.03790283203125 279.9090576171875 44.4346923828125 279.4148559570312 41.92510986328125 278.3721313476562 C 31.7498779296875 274.14404296875 26.9271240234375 262.4899291992188 31.124755859375 252.3131103515625 C 31.2840576171875 251.929443359375 31.44073486328125 251.5537719726562 31.6011962890625 251.1707153320312 C 34.8125 243.53125 42.21624755859375 238.9328002929688 50.0166015625 238.932861328125 Z M 134.9244384765625 113.00146484375 C 140.0576171875 113.0018310546875 145.191162109375 114.9700317382812 149.0966796875 118.9025268554688 C 156.880126953125 126.7399291992188 156.844970703125 139.4116821289062 149.0180053710938 147.2056884765625 L 148.3142700195312 147.9063720703125 C 144.407958984375 151.7962646484375 139.2958374023438 153.7399291992188 134.183349609375 153.7399291992188 C 129.0521240234375 153.7399291992188 123.9204711914062 151.7809448242188 120.0111083984375 147.8655395507812 C 112.223876953125 140.066162109375 112.2252197265625 127.4494018554688 120.0007934570312 119.6513061523438 C 120.1273803710938 119.5248413085938 120.2354736328125 119.4169921875 120.3622436523438 119.2907104492188 C 120.3734741210938 119.279541015625 120.3847045898438 119.2683715820312 120.3958740234375 119.2571411132812 C 120.4140014648438 119.2391357421875 120.4365844726562 119.2166137695312 120.4547119140625 119.1986083984375 C 120.4760131835938 119.1774291992188 120.497314453125 119.1561889648438 120.5185546875 119.135009765625 C 120.5276489257812 119.1260375976562 120.5462646484375 119.1074829101562 120.5553588867188 119.0984497070312 C 120.5740356445312 119.079833984375 120.5927734375 119.0612182617188 120.6114501953125 119.0426025390625 C 120.6386108398438 119.0155639648438 120.6617431640625 118.9926147460938 120.6889038085938 118.965576171875 C 120.6915283203125 118.9630126953125 120.6942138671875 118.9603271484375 120.6968383789062 118.957763671875 C 120.76025390625 118.8946533203125 120.8192138671875 118.8361206054688 120.8826904296875 118.7730712890625 C 124.775634765625 114.924072265625 129.8500366210938 113.0010375976562 134.9244384765625 113.00146484375 Z M 261.4542846679688 28.97808837890625 C 269.31298828125 28.9786376953125 276.7630004882812 33.6478271484375 279.9341430664062 41.3726806640625 C 284.1288452148438 51.5908203125 279.2504272460938 63.28594970703125 269.037841796875 67.4945068359375 L 268.1203002929688 67.8726806640625 C 265.625732421875 68.90069580078125 263.0433349609375 69.3873291015625 260.5018310546875 69.3873291015625 C 252.6383666992188 69.3873291015625 245.1744995117188 64.72552490234375 241.9835815429688 57.011962890625 C 237.7611083984375 46.80511474609375 242.6171264648438 35.11907958984375 252.8297119140625 30.91064453125 C 253.0582885742188 30.8160400390625 253.2870483398438 30.7216796875 253.5159301757812 30.62744140625 C 253.6480102539062 30.5731201171875 253.7827758789062 30.5177001953125 253.9149169921875 30.4635009765625 C 256.3860473632812 29.4554443359375 258.9404296875 28.9779052734375 261.4542846679688 28.97808837890625 Z" stroke="none" fill="#fff"/></g><ellipse cx="327.638" cy="327.638" rx="327.638" ry="327.638" transform="translate(128.547 128.547)" opacity="0.364" fill="url(#c)"/><g transform="matrix(0.848, 0.53, -0.53, 0.848, 839.672, 425.388)" fill="#fff" stroke="#000" stroke-width="5"><ellipse cx="20.379" cy="20.379" rx="20.379" ry="20.379" stroke="none"/><ellipse cx="20.379" cy="20.379" rx="22.879" ry="22.879" fill="none"/></g><g transform="matrix(-0.53, 0.848, -0.848, -0.53, 486.684, 837.938)" fill="#fff" stroke="#000" stroke-width="5"><ellipse cx="20.379" cy="20.379" rx="20.379" ry="20.379" stroke="none"/><ellipse cx="20.379" cy="20.379" rx="22.879" ry="22.879" fill="none"/></g><g transform="matrix(-0.848, -0.53, 0.53, -0.848, 73.8, 488.438)" fill="#fff" stroke="#000" stroke-width="5"><ellipse cx="20.379" cy="20.379" rx="20.379" ry="20.379" stroke="none"/><ellipse cx="20.379" cy="20.379" rx="22.879" ry="22.879" fill="none"/></g><g transform="matrix(0.77, 0.64, -0.64, 0.77, 393.08, -265.14)" filter="url(#d)"><g transform="translate(237.42 196.17) rotate(-8)" fill="#00c4ff" stroke="#000" stroke-width="10"><ellipse cx="21.163" cy="21.163" rx="21.163" ry="21.163" stroke="none"/><ellipse cx="21.163" cy="21.163" rx="26.163" ry="26.163" fill="none"/></g></g></g><g transform="translate(391.142 194.961) rotate(30)"><path d="M362.713,23.424l-84.954,84.952a39.353,39.353,0,0,1-27.916,11.37,41.142,41.142,0,0,1-28.493-11.507l-.007.007L136.876,23.781l-.355-.357a79.971,79.971,0,0,0-113.1,113.1h0L193.067,306.165h0a79.969,79.969,0,0,0,113.1,0L475.809,136.521a79.971,79.971,0,1,0-113.1-113.1Z" transform="translate(512.646 329.589) rotate(180)" fill="#fff"/><path d="M362.713,23.424l-84.954,84.952a39.353,39.353,0,0,1-27.916,11.37,41.142,41.142,0,0,1-28.493-11.507l-.007.007L136.876,23.781l-.355-.357a79.971,79.971,0,0,0-113.1,113.1h0L193.067,306.164h0a79.968,79.968,0,0,0,113.1,0L475.809,136.521a79.971,79.971,0,1,0-113.1-113.1Z" transform="matrix(-1, 0.017, -0.017, -1, 515.484, 340.884)" fill="#fff" opacity="0.32"/><path d="M362.713,23.424l-84.954,84.952a39.353,39.353,0,0,1-27.916,11.37,41.142,41.142,0,0,1-28.493-11.507l-.007.007L136.876,23.781l-.355-.357a79.971,79.971,0,0,0-113.1,113.1h0L193.067,306.164h0a79.968,79.968,0,0,0,113.1,0L475.809,136.521a79.971,79.971,0,1,0-113.1-113.1Z" transform="matrix(-0.999, 0.035, -0.035, -0.999, 518.245, 352.13)" fill="#fff" opacity="0.16"/><path d="M362.713,23.424l-84.954,84.952a39.353,39.353,0,0,1-27.916,11.37,41.142,41.142,0,0,1-28.493-11.507l-.007.007L136.876,23.781l-.355-.357a79.971,79.971,0,0,0-113.1,113.1h0L193.067,306.164h0a79.968,79.968,0,0,0,113.1,0L475.809,136.521a79.971,79.971,0,1,0-113.1-113.1Z" transform="translate(520.928 363.33) rotate(177)" fill="#fff" opacity="0.08"/><path d="M362.713,23.424l-84.954,84.952a39.353,39.353,0,0,1-27.916,11.37,41.142,41.142,0,0,1-28.493-11.507l-.007.007L136.876,23.781l-.355-.357a79.971,79.971,0,0,0-113.1,113.1h0L193.067,306.164h0a79.968,79.968,0,0,0,113.1,0L475.809,136.521a79.971,79.971,0,1,0-113.1-113.1Z" transform="matrix(-0.998, 0.07, -0.07, -0.998, 523.532, 374.482)" fill="#fff" opacity="0.04"/><path d="M362.713,23.424l-84.954,84.952a39.353,39.353,0,0,1-27.916,11.37,41.142,41.142,0,0,1-28.493-11.507l-.007.007L136.876,23.781l-.355-.357a79.971,79.971,0,0,0-113.1,113.1h0L193.067,306.164h0a79.968,79.968,0,0,0,113.1,0L475.809,136.521a79.971,79.971,0,1,0-113.1-113.1Z" transform="matrix(-0.996, 0.087, -0.087, -0.996, 526.06, 385.59)" fill="#fff" opacity="0.02"/></g><g transform="translate(61.867 115.547) rotate(-40)"><path d="M31.236,13.451a26.65,26.65,0,0,1,46.3,0l27.7,48.588a26.65,26.65,0,0,1-23.152,39.849h-55.4A26.65,26.65,0,0,1,3.537,62.04Z" transform="translate(34.774 0)" fill="#00c4ff"/><path d="M31.236,13.451a26.65,26.65,0,0,1,46.3,0l27.7,48.588a26.65,26.65,0,0,1-23.152,39.849h-55.4A26.65,26.65,0,0,1,3.537,62.04Z" transform="matrix(1, 0.017, -0.017, 1, 27.834, 6.897)" fill="#00c4ff" opacity="0.32"/><path d="M31.236,13.451a26.65,26.65,0,0,1,46.3,0l27.7,48.588a26.65,26.65,0,0,1-23.152,39.849h-55.4A26.65,26.65,0,0,1,3.537,62.04Z" transform="matrix(0.999, 0.035, -0.035, 0.999, 20.909, 13.809)" fill="#00c4ff" opacity="0.16"/><path d="M31.236,13.451a26.65,26.65,0,0,1,46.3,0l27.7,48.588a26.65,26.65,0,0,1-23.152,39.849h-55.4A26.65,26.65,0,0,1,3.537,62.04Z" transform="translate(14 20.738) rotate(3)" fill="#00c4ff" opacity="0.08"/><path d="M31.236,13.451a26.65,26.65,0,0,1,46.3,0l27.7,48.588a26.65,26.65,0,0,1-23.152,39.849h-55.4A26.65,26.65,0,0,1,3.537,62.04Z" transform="matrix(0.998, 0.07, -0.07, 0.998, 7.107, 27.683)" fill="#00c4ff" opacity="0.04"/></g></g></svg>